# xmcd CD database file
#
# Track frame offsets:
#	150
#	28469
#	59140
#	73711
#	96077
#	117274
#	145316
#	164318
#	190206
#
# Disc length: 3042 seconds
#
# Revision: 0
# Processed by: cddbd v1.5.2PL0 Copyright (c) Steve Scherf et al.
# Submitted via: CDex 1.70beta2
#
DISCID=8a0be009
DTITLE=J'hel - Ether
DYEAR=1997
DGENRE=New Age
TTITLE0=Ipso
TTITLE1=Dyap Upe
TTITLE2=Dyap Feuz
TTITLE3=Dyap Zoit
TTITLE4=Dyap Ravse
TTITLE5=Dyap Dipr
TTITLE6=Dyap Taiz
TTITLE7=Dyap Tek
TTITLE8=Dyap Peug
EXTD=YEAR: 1997
EXTT0=
EXTT1=
EXTT2=
EXTT3=
EXTT4=
EXTT5=
EXTT6=
EXTT7=
EXTT8=
PLAYORDER=
